<?xml version="1.0" encoding="UTF-8"?>
<svg version="1.1" xmlns="http://www.w3.org/2000/svg" width="300" height="300">
<path d="M0 0 C1.40451596 -0.00571971 2.80902729 -0.01269007 4.21353149 -0.02079773 C7.9885774 -0.03857031 11.76338885 -0.03759083 15.53846383 -0.03185534 C18.70890342 -0.02873946 21.87929951 -0.03488253 25.04973286 -0.04089409 C32.53986607 -0.05488628 40.02988511 -0.05342323 47.52001953 -0.04199219 C55.20394393 -0.0305233 62.88751877 -0.044578 70.57139713 -0.07138866 C77.20797253 -0.09366367 83.84443917 -0.10015647 90.48104924 -0.09431225 C94.42738075 -0.09096864 98.37348851 -0.09318189 102.31978798 -0.11056328 C127.49353352 -0.21074114 150.23635047 0.65365338 169.4675293 19.40405273 C184.50905892 36.61879037 187.90615768 53.72688139 188.1706543 75.80249023 C188.20408867 77.82677937 188.23797435 79.8510611 188.27227783 81.87533569 C188.61257913 103.99004476 188.49827742 126.10617225 188.28051758 148.22143555 C188.22435186 153.98532565 188.1884601 159.74916861 188.15688705 165.51323891 C188.12899877 170.03625157 188.08797842 174.5590762 188.04328156 179.08195114 C188.02429262 181.20996855 188.00989319 183.33803274 188.00048065 185.46611404 C187.89940921 206.12067391 184.70440231 224.80912424 169.95117188 240.30273438 C158.03842969 251.99341223 142.11860044 259.48283919 125.3109436 259.55122375 C123.49055573 259.56195671 123.49055573 259.56195671 121.63339233 259.57290649 C120.31489288 259.5755954 118.99639343 259.5782843 117.63793945 259.58105469 C116.22460771 259.58732672 114.81127758 259.59397417 113.39794922 259.60096741 C108.76750825 259.62193388 104.13706726 259.63236744 99.5065918 259.64233398 C97.90529743 259.64638524 96.30400323 259.65050227 94.7027092 259.65468407 C87.17206695 259.67372473 79.6414344 259.68795437 72.11077273 259.69629604 C63.45581946 259.70604436 54.80112357 259.73230538 46.14626086 259.77279693 C39.43341677 259.80310996 32.72064578 259.81777946 26.00773466 259.82107705 C22.00984773 259.82341155 18.01223605 259.83215964 14.01442337 259.85753822 C10.24351772 259.88108968 6.47306324 259.88494569 2.70210266 259.87477684 C0.68701259 259.87405768 -1.32805598 259.89295963 -3.3430481 259.9128418 C-23.93024256 259.79772274 -40.16262287 252.90258577 -54.5324707 238.40405273 C-55.12801758 237.84202148 -55.72356445 237.27999023 -56.3371582 236.70092773 C-59.94218917 232.9984635 -62.31149881 228.50127078 -64.7199707 223.96655273 C-65.05351563 223.36496338 -65.38706055 222.76337402 -65.73071289 222.14355469 C-73.73526646 206.26946896 -71.98094513 187.21996016 -71.93544722 169.97271872 C-71.92775429 166.13562507 -71.93492226 162.29855099 -71.93960571 158.4614563 C-71.94503432 152.02480139 -71.93794701 145.58825039 -71.92358398 139.15161133 C-71.90724912 131.7465381 -71.91256373 124.34171267 -71.9290632 116.93664539 C-71.94274463 110.5361356 -71.94456585 104.13569972 -71.93674719 97.73518002 C-71.93210879 93.93096496 -71.93133885 90.1268658 -71.94135666 86.32265854 C-71.95012244 82.74534566 -71.9438325 79.16834768 -71.92667389 75.59106827 C-71.92091689 73.67831079 -71.92964071 71.76552617 -71.9390564 69.8527832 C-71.7968422 50.11463785 -65.73351256 32.91092744 -52.0949707 18.52905273 C-37.18418589 4.68087558 -19.9973962 -0.07011099 0 0 Z " fill="#030303" transform="translate(91.532470703125,19.595947265625)"/>
<path d="M0 0 C2.41328475 1.4456578 4.05535758 2.66848672 5.7578125 4.90234375 C6.79948581 9.30942315 6.07983264 11.25830347 4.0703125 15.27734375 C3.30454658 16.48889483 2.53323916 17.69695295 1.7578125 18.90234375 C0.8494749 20.45760785 -0.0460734 22.02040126 -0.9296875 23.58984375 C-1.55423828 24.67845703 -1.55423828 24.67845703 -2.19140625 25.7890625 C-3.20639029 27.8303501 -3.78496191 29.67650927 -4.2421875 31.90234375 C-4.9021875 31.90234375 -5.5621875 31.90234375 -6.2421875 31.90234375 C-6.2421875 33.22234375 -6.2421875 34.54234375 -6.2421875 35.90234375 C-6.9021875 35.90234375 -7.5621875 35.90234375 -8.2421875 35.90234375 C-8.60957031 37.14371094 -8.60957031 37.14371094 -8.984375 38.41015625 C-10.43412239 42.43523131 -12.3144926 46.03462089 -14.3671875 49.77734375 C-14.73972656 50.46570313 -15.11226562 51.1540625 -15.49609375 51.86328125 C-16.40718276 53.54529173 -17.32409065 55.22414811 -18.2421875 56.90234375 C-13.71876147 55.48069557 -11.5355707 53.24675119 -8.2421875 49.90234375 C-5.18693237 47.45278463 -2.0298751 45.14821404 1.1328125 42.83984375 C1.9578125 42.22818359 2.7828125 41.61652344 3.6328125 40.98632812 C17.0117277 31.16450546 17.0117277 31.16450546 23.6953125 31.50390625 C27.3779619 32.21532716 30.66865699 33.79154921 33.7578125 35.90234375 C35.31581147 39.01834169 35.06584364 42.29638776 35.1328125 45.71484375 C35.18888672 46.7831543 35.18888672 46.7831543 35.24609375 47.87304688 C35.31115595 51.78039344 35.0270219 53.57966444 32.49609375 56.61328125 C31.59246094 57.36867187 30.68882812 58.1240625 29.7578125 58.90234375 C28.35368011 60.49925127 26.95781526 62.10346624 25.5703125 63.71484375 C18.75426878 71.25718721 11.59673339 76.72959176 2.5703125 81.33984375 C1.90507568 81.68225098 1.23983887 82.0246582 0.55444336 82.37744141 C-3.74974427 84.47738432 -7.4708943 85.46296396 -12.2421875 85.90234375 C-9.40354589 88.82969291 -6.51933185 91.50189644 -3.3671875 94.08984375 C5.56962086 101.8271939 10.34391114 111.55291519 12.99609375 122.86328125 C13.68049876 125.59388177 14.50157223 128.19028186 15.4453125 130.83984375 C17.46296874 136.81728522 17.46296874 136.81728522 16.7578125 139.90234375 C14.11089652 143.07864293 11.20894112 144.36356482 7.2578125 145.27734375 C0.73844376 145.70420718 -3.41914656 141.71203491 -8.09375 137.72265625 C-10.80426399 135.32145017 -13.46147307 132.86395281 -16.1171875 130.40234375 C-20.19900613 126.64277396 -24.51804618 123.485394 -29.1171875 120.40234375 C-29.76026855 119.96857422 -30.40334961 119.53480469 -31.06591797 119.08789062 C-34.10169434 117.0975842 -36.6967668 115.64793481 -40.2421875 114.90234375 C-40.6134375 116.05734375 -40.9846875 117.21234375 -41.3671875 118.40234375 C-41.98755994 120.23724815 -42.61344898 122.07028917 -43.2421875 123.90234375 C-43.45149902 124.52399414 -43.66081055 125.14564453 -43.87646484 125.78613281 C-49.96737126 143.70969181 -49.96737126 143.70969181 -57.6171875 148.33984375 C-63.97286117 149.70177382 -67.74718391 149.70665005 -73.3046875 146.21484375 C-76.16951624 143.78393055 -77.13786956 142.6089844 -77.69140625 138.859375 C-77.34748367 133.1071013 -76.15374529 127.76117246 -74.09666443 122.39073181 C-73.14154457 119.60925371 -72.49417767 116.84261439 -71.85961914 113.97094727 C-70.29182457 107.04336594 -68.5413743 100.17430633 -66.73828125 93.3046875 C-66.41432877 92.06739395 -66.09037628 90.8301004 -65.75660706 89.55531311 C-65.07779177 86.96603888 -64.39809198 84.37701524 -63.71704102 81.78833008 C-62.84636837 78.47767999 -61.98164592 75.16550573 -61.11828518 71.85294247 C-60.28722654 68.66915533 -59.44985416 65.48702937 -58.61328125 62.3046875 C-58.30490829 61.11930893 -57.99653534 59.93393036 -57.67881775 58.71263123 C-57.38834061 57.61371048 -57.09786346 56.51478973 -56.79858398 55.38256836 C-56.41910866 53.93580971 -56.41910866 53.93580971 -56.03196716 52.45982361 C-55.3025633 50.09785384 -54.36186737 48.0958487 -53.2421875 45.90234375 C-52.80745411 43.83065129 -52.43564527 41.74506624 -52.1171875 39.65234375 C-51.94960937 38.5746875 -51.78203125 37.49703125 -51.609375 36.38671875 C-51.48820312 35.566875 -51.36703125 34.74703125 -51.2421875 33.90234375 C-50.5821875 33.90234375 -49.9221875 33.90234375 -49.2421875 33.90234375 C-49.13261719 33.17789063 -49.02304688 32.4534375 -48.91015625 31.70703125 C-48.0127979 26.23533398 -47.00825382 21.77062047 -44.2421875 16.90234375 C-43.70939185 15.6573955 -43.18881293 14.40715794 -42.6796875 13.15234375 C-41.2421875 9.90234375 -41.2421875 9.90234375 -39.2421875 7.90234375 C-36.1171875 7.77734375 -36.1171875 7.77734375 -33.2421875 7.90234375 C-32.9740625 7.30421875 -32.7059375 6.70609375 -32.4296875 6.08984375 C-30.63886788 2.7909655 -29.21441541 1.30806482 -25.71484375 -0.15234375 C-17.75035658 -2.32040437 -7.85972072 -2.66094159 0 0 Z " fill="#FAFAFA" transform="translate(174.2421875,68.09765625)"/>
<path d="M0 0 C1.65 0.33 3.3 0.66 5 1 C2.33333333 3.66666667 -0.33333333 6.33333333 -3 9 C-2.01 6.03 -1.02 3.06 0 0 Z " fill="#535353" transform="translate(134,183)"/>
<path d="" fill="#FFFFFF" transform="translate(0,0)"/>
<path d="" fill="#FFFFFF" transform="translate(0,0)"/>
<path d="" fill="#FFFFFF" transform="translate(0,0)"/>
<path d="" fill="#FFFFFF" transform="translate(0,0)"/>
<path d="" fill="#FFFFFF" transform="translate(0,0)"/>
<path d="" fill="#FFFFFF" transform="translate(0,0)"/>
<path d="" fill="#FFFFFF" transform="translate(0,0)"/>
<path d="" fill="#FFFFFF" transform="translate(0,0)"/>
<path d="" fill="#FFFFFF" transform="translate(0,0)"/>
<path d="" fill="#FFFFFF" transform="translate(0,0)"/>
<path d="" fill="#FFFFFF" transform="translate(0,0)"/>
<path d="" fill="#FFFFFF" transform="translate(0,0)"/>
<path d="" fill="#FFFFFF" transform="translate(0,0)"/>
<path d="" fill="#FFFFFF" transform="translate(0,0)"/>
<path d="" fill="#FFFFFF" transform="translate(0,0)"/>
<path d="" fill="#FFFFFF" transform="translate(0,0)"/>
<path d="" fill="#FFFFFF" transform="translate(0,0)"/>
<path d="" fill="#FFFFFF" transform="translate(0,0)"/>
<path d="" fill="#FFFFFF" transform="translate(0,0)"/>
<path d="" fill="#FFFFFF" transform="translate(0,0)"/>
<path d="" fill="#FFFFFF" transform="translate(0,0)"/>
<path d="" fill="#FFFFFF" transform="translate(0,0)"/>
<path d="" fill="#FFFFFF" transform="translate(0,0)"/>
<path d="" fill="#FFFFFF" transform="translate(0,0)"/>
<path d="" fill="#FFFFFF" transform="translate(0,0)"/>
</svg>
